<?xml version="1.0" encoding="UTF-8"?>
<svg id="Capa_2" data-name="Capa 2" xmlns="http://www.w3.org/2000/svg" viewBox="0 0 709.04 163.29">
  <defs>
    <style>
      .cls-1 {
        fill: #f0e531;
      }
    </style>
  </defs>
  <g id="Capa_1-2" data-name="Capa 1">
    <g>
      <path class="cls-1" d="M114.04,24.2h-44.92V125.29h-24.2V24.2H0V0H114.04V24.2Z"/>
      <path class="cls-1" d="M197.91,48.66h-35.51c-12.08,0-21.91,9.82-21.91,21.91v54.72h-24.03v-54.72c0-25.33,20.61-45.94,45.94-45.94h35.51v24.03Z"/>
      <path class="cls-1" d="M211.27,24.55h24.21V125.29h-24.21V24.55Z"/>
      <path class="cls-1" d="M248.7,0h24.2V125.29h-24.2V0Z"/>
      <path class="cls-1" d="M409.73,53v43.92c0,15.65-12.8,28.37-28.55,28.37h-66.5c-15.75,0-28.56-12.73-28.56-28.37V53c0-15.64,12.81-28.36,28.56-28.36h66.5c15.75,0,28.55,12.73,28.55,28.36Zm-24.03-4.33h-75.54v52.6h75.54V48.66Z"/>
      <path class="cls-1" d="M546.47,52.32V119.6c0,24.08-17.13,43.68-38.19,43.68h-61.06v-23.46h61.06c6.13,0,12.78-6.71,13.97-16.95h-70.79c-15.73,0-28.54-12.42-28.54-27.7V52.32c0-15.26,12.8-27.69,28.54-27.69h66.46c15.73,0,28.54,12.42,28.54,27.69Zm-24.02,48.9V48.65h-75.51v52.57h75.51Z"/>
      <path class="cls-1" d="M559.72,24.55h24.21V125.29h-24.21V24.55Z"/>
      <path class="cls-1" d="M709.04,125.29h-24.07v-27.05h-36.91c-14.53,0-26.35,11.83-26.35,26.36v.68h-24.55v-.68c0-28.07,22.84-50.91,50.91-50.91h38.12l-1.45-8.94c-1.47-9.03-9.13-15.58-18.21-15.58h-69.37V24.63h69.37c23.46,0,42.53,19.36,42.53,43.15v57.51Z"/>
    </g>
  </g>
</svg>